# xmcd
#
# Track frame offsets: 
#        150
#        19842
#        37123
#        52378
#        63664
#        84979
#        103540
#        122842
#        138542
#        155858
#
# Disc length: 2341 seconds
#
# Revision: 0
# Processed by: cddbd v1.5.2PL0 Copyright (c) Steve Scherf et al.
# Submitted via: ExactAudioCopy v0.95b4
#
DISCID=9409230a
DTITLE=Charlie Faye - Wilson St.
DYEAR=2009
DGENRE=Alternative
TTITLE0=Bottletops
TTITLE1=Runaround
TTITLE2=She's Gonna Go
TTITLE3=Simple Seduction
TTITLE4=Waitin' on Something
TTITLE5=Jersey Pride
TTITLE6=Coward's Lament
TTITLE7=Summer Legs
TTITLE8=Lady of the Leading Man
TTITLE9=Ready to Fall
EXTD=
EXTT0=
EXTT1=
EXTT2=
EXTT3=
EXTT4=
EXTT5=
EXTT6=
EXTT7=
EXTT8=
EXTT9=
PLAYORDER=
